<mxfile host="Electron" modified="2023-06-16T19:04:16.669Z" agent="Mozilla/5.0 (Macintosh; Intel Mac OS X 10_15_7) AppleWebKit/537.36 (KHTML, like Gecko) draw.io/21.3.7 Chrome/112.0.5615.204 Electron/24.5.0 Safari/537.36" etag="1qH9rrUqpcr69Pk35DoQ" version="21.3.7" type="device">
  <diagram name="Page-1" id="s16WJbm6Fx1J53u12At3">
    <mxGraphModel dx="1749" dy="1240" grid="1" gridSize="10" guides="1" tooltips="1" connect="1" arrows="1" fold="1" page="1" pageScale="1" pageWidth="850" pageHeight="1100" math="0" shadow="0">
      <root>
        <mxCell id="0" />
        <mxCell id="1" parent="0" />
        <mxCell id="yer0IGdIqmeJuPcpPnfa-2" value="ParKing" style="html=1;overflow=block;blockSpacing=1;whiteSpace=wrap;container=1;pointerEvents=0;collapsible=0;recursiveResize=0;fontSize=16.7;fontColor=#333333;spacing=0;verticalAlign=bottom;strokeColor=#333333;strokeOpacity=100;fillOpacity=0;rounded=1;absoluteArcSize=1;arcSize=7.5;fillColor=#000000;strokeWidth=0.8;lucidId=Bqg6.6iqeOJ5;" parent="1" vertex="1">
          <mxGeometry x="301" y="10" width="415" height="1180" as="geometry" />
        </mxCell>
        <mxCell id="yer0IGdIqmeJuPcpPnfa-10" value="booking parking" style="html=1;overflow=block;blockSpacing=1;whiteSpace=wrap;ellipse;fontSize=13.3;fontColor=#ffffff;align=center;spacing=0;verticalAlign=middle;strokeColor=#ffffff;strokeOpacity=100;fillOpacity=100;rounded=1;absoluteArcSize=1;arcSize=7.5;fillColor=#00c2a8;strokeWidth=0.8;lucidId=nPg66Lcen1TV;" parent="yer0IGdIqmeJuPcpPnfa-2" vertex="1">
          <mxGeometry x="139" y="840" width="120" height="90" as="geometry" />
        </mxCell>
        <mxCell id="d7LF6ZpOPFW84GlmmyYs-4" value="Modify&amp;nbsp; car" style="html=1;overflow=block;blockSpacing=1;whiteSpace=wrap;ellipse;fontSize=13.3;fontColor=#ffffff;fontStyle=2;align=center;spacing=0;verticalAlign=middle;strokeColor=#ffffff;strokeOpacity=100;fillOpacity=100;rounded=1;absoluteArcSize=1;arcSize=7.5;fillColor=#00c2a8;strokeWidth=0.8;lucidId=rQg6UsH.H7ip;" vertex="1" parent="yer0IGdIqmeJuPcpPnfa-2">
          <mxGeometry x="139" y="490" width="120" height="90" as="geometry" />
        </mxCell>
        <mxCell id="d7LF6ZpOPFW84GlmmyYs-5" value="" style="html=1;jettySize=18;whiteSpace=wrap;fontSize=13;strokeColor=#333333;strokeOpacity=100;strokeWidth=0.8;rounded=0;startArrow=none;endArrow=none;entryX=0.111;entryY=0.18;entryPerimeter=0;lucidId=w-g60lsR1ei3;" edge="1" parent="yer0IGdIqmeJuPcpPnfa-2" target="d7LF6ZpOPFW84GlmmyYs-4">
          <mxGeometry width="100" height="100" relative="1" as="geometry">
            <Array as="points" />
            <mxPoint x="-91" y="279" as="sourcePoint" />
          </mxGeometry>
        </mxCell>
        <mxCell id="yer0IGdIqmeJuPcpPnfa-11" value="Add&amp;nbsp; car" style="html=1;overflow=block;blockSpacing=1;whiteSpace=wrap;ellipse;fontSize=13.3;fontColor=#ffffff;fontStyle=2;align=center;spacing=0;verticalAlign=middle;strokeColor=#ffffff;strokeOpacity=100;fillOpacity=100;rounded=1;absoluteArcSize=1;arcSize=7.5;fillColor=#00c2a8;strokeWidth=0.8;lucidId=rQg6UsH.H7ip;" parent="yer0IGdIqmeJuPcpPnfa-2" vertex="1">
          <mxGeometry x="147.5" y="290" width="120" height="90" as="geometry" />
        </mxCell>
        <mxCell id="yer0IGdIqmeJuPcpPnfa-6" value="register" style="html=1;overflow=block;blockSpacing=1;whiteSpace=wrap;ellipse;fontSize=13.3;fontColor=#ffffff;fontStyle=2;align=center;spacing=0;verticalAlign=middle;strokeColor=#ffffff;strokeOpacity=100;fillOpacity=100;rounded=1;absoluteArcSize=1;arcSize=7.5;fillColor=#00c2a8;strokeWidth=0.8;lucidId=Bqg6b9R.2y2D;" parent="yer0IGdIqmeJuPcpPnfa-2" vertex="1">
          <mxGeometry x="147.5" width="120" height="90" as="geometry" />
        </mxCell>
        <mxCell id="yer0IGdIqmeJuPcpPnfa-8" value="login" style="html=1;overflow=block;blockSpacing=1;whiteSpace=wrap;ellipse;fontSize=13.3;fontColor=#ffffff;align=center;spacing=0;verticalAlign=middle;strokeColor=#ffffff;strokeOpacity=100;fillOpacity=100;rounded=1;absoluteArcSize=1;arcSize=7.5;fillColor=#00c2a8;strokeWidth=0.8;lucidId=1yg6ph~d_LP~;" parent="yer0IGdIqmeJuPcpPnfa-2" vertex="1">
          <mxGeometry x="147.5" y="100" width="120" height="90" as="geometry" />
        </mxCell>
        <mxCell id="yer0IGdIqmeJuPcpPnfa-12" value="Select  place" style="html=1;overflow=block;blockSpacing=1;whiteSpace=wrap;ellipse;fontSize=13.3;fontColor=#ffffff;fontStyle=2;align=center;spacing=0;verticalAlign=middle;strokeColor=#ffffff;strokeOpacity=100;fillOpacity=100;rounded=1;absoluteArcSize=1;arcSize=7.5;fillColor=#00c2a8;strokeWidth=0.8;lucidId=sQg6l3K30XCc;" parent="yer0IGdIqmeJuPcpPnfa-2" vertex="1">
          <mxGeometry x="139" y="610" width="120" height="90" as="geometry" />
        </mxCell>
        <mxCell id="d7LF6ZpOPFW84GlmmyYs-6" value="view&amp;nbsp; car" style="html=1;overflow=block;blockSpacing=1;whiteSpace=wrap;ellipse;fontSize=13.3;fontColor=#ffffff;fontStyle=2;align=center;spacing=0;verticalAlign=middle;strokeColor=#ffffff;strokeOpacity=100;fillOpacity=100;rounded=1;absoluteArcSize=1;arcSize=7.5;fillColor=#00c2a8;strokeWidth=0.8;lucidId=rQg6UsH.H7ip;" vertex="1" parent="yer0IGdIqmeJuPcpPnfa-2">
          <mxGeometry x="139" y="390" width="120" height="90" as="geometry" />
        </mxCell>
        <mxCell id="d7LF6ZpOPFW84GlmmyYs-10" value="view&amp;nbsp; booking" style="html=1;overflow=block;blockSpacing=1;whiteSpace=wrap;ellipse;fontSize=13.3;fontColor=#ffffff;fontStyle=2;align=center;spacing=0;verticalAlign=middle;strokeColor=#ffffff;strokeOpacity=100;fillOpacity=100;rounded=1;absoluteArcSize=1;arcSize=7.5;fillColor=#00c2a8;strokeWidth=0.8;lucidId=rQg6UsH.H7ip;" vertex="1" parent="yer0IGdIqmeJuPcpPnfa-2">
          <mxGeometry x="139" y="940" width="120" height="90" as="geometry" />
        </mxCell>
        <mxCell id="d7LF6ZpOPFW84GlmmyYs-8" value="Modify&amp;nbsp;booking" style="html=1;overflow=block;blockSpacing=1;whiteSpace=wrap;ellipse;fontSize=13.3;fontColor=#ffffff;fontStyle=2;align=center;spacing=0;verticalAlign=middle;strokeColor=#ffffff;strokeOpacity=100;fillOpacity=100;rounded=1;absoluteArcSize=1;arcSize=7.5;fillColor=#00c2a8;strokeWidth=0.8;lucidId=rQg6UsH.H7ip;" vertex="1" parent="yer0IGdIqmeJuPcpPnfa-2">
          <mxGeometry x="139" y="1060" width="120" height="90" as="geometry" />
        </mxCell>
        <mxCell id="d7LF6ZpOPFW84GlmmyYs-13" value="Modify&amp;nbsp;Profile&amp;nbsp;" style="html=1;overflow=block;blockSpacing=1;whiteSpace=wrap;ellipse;fontSize=13.3;fontColor=#ffffff;align=center;spacing=0;verticalAlign=middle;strokeColor=#ffffff;strokeOpacity=100;fillOpacity=100;rounded=1;absoluteArcSize=1;arcSize=7.5;fillColor=#00c2a8;strokeWidth=0.8;lucidId=1yg6ph~d_LP~;" vertex="1" parent="yer0IGdIqmeJuPcpPnfa-2">
          <mxGeometry x="147.5" y="200" width="120" height="90" as="geometry" />
        </mxCell>
        <mxCell id="d7LF6ZpOPFW84GlmmyYs-14" value="" style="html=1;jettySize=18;whiteSpace=wrap;fontSize=13;strokeColor=#333333;strokeOpacity=100;strokeWidth=0.8;rounded=0;startArrow=none;endArrow=none;entryX=0.019;entryY=0.647;entryPerimeter=0;lucidId=FOg6-LeP_1ml;" edge="1" parent="yer0IGdIqmeJuPcpPnfa-2" target="d7LF6ZpOPFW84GlmmyYs-13">
          <mxGeometry width="100" height="100" relative="1" as="geometry">
            <Array as="points" />
            <mxPoint x="-81" y="330" as="sourcePoint" />
          </mxGeometry>
        </mxCell>
        <mxCell id="d7LF6ZpOPFW84GlmmyYs-16" value="View&amp;nbsp; place" style="html=1;overflow=block;blockSpacing=1;whiteSpace=wrap;ellipse;fontSize=13.3;fontColor=#ffffff;fontStyle=2;align=center;spacing=0;verticalAlign=middle;strokeColor=#ffffff;strokeOpacity=100;fillOpacity=100;rounded=1;absoluteArcSize=1;arcSize=7.5;fillColor=#00c2a8;strokeWidth=0.8;lucidId=sQg6l3K30XCc;" vertex="1" parent="yer0IGdIqmeJuPcpPnfa-2">
          <mxGeometry x="139" y="730" width="120" height="90" as="geometry" />
        </mxCell>
        <mxCell id="yer0IGdIqmeJuPcpPnfa-3" value="ParKing" style="html=1;overflow=block;blockSpacing=1;whiteSpace=wrap;container=1;pointerEvents=0;collapsible=0;recursiveResize=0;fontSize=16.7;fontColor=#333333;fontStyle=1;spacing=0;verticalAlign=bottom;strokeColor=#333333;strokeOpacity=100;fillOpacity=0;rounded=1;absoluteArcSize=1;arcSize=7.5;fillColor=#000000;strokeWidth=0.8;lucidId=55g6yMKkL3yv;" parent="1" vertex="1">
          <mxGeometry x="300" y="1250" width="415" height="1040" as="geometry" />
        </mxCell>
        <mxCell id="d7LF6ZpOPFW84GlmmyYs-97" value="View place" style="html=1;overflow=block;blockSpacing=1;whiteSpace=wrap;ellipse;fontSize=13.3;fontColor=#ffffff;fontStyle=2;align=center;spacing=0;verticalAlign=middle;strokeColor=#ffffff;strokeOpacity=100;fillOpacity=100;rounded=1;absoluteArcSize=1;arcSize=7.5;fillColor=#00c2a8;strokeWidth=0.8;lucidId=I1g6-z2hxhSr;" vertex="1" parent="yer0IGdIqmeJuPcpPnfa-3">
          <mxGeometry x="147.5" y="425" width="120" height="90" as="geometry" />
        </mxCell>
        <mxCell id="yer0IGdIqmeJuPcpPnfa-21" value="Add a place" style="html=1;overflow=block;blockSpacing=1;whiteSpace=wrap;ellipse;fontSize=13.3;fontColor=#ffffff;fontStyle=2;align=center;spacing=0;verticalAlign=middle;strokeColor=#ffffff;strokeOpacity=100;fillOpacity=100;rounded=1;absoluteArcSize=1;arcSize=7.5;fillColor=#00c2a8;strokeWidth=0.8;lucidId=I1g6-z2hxhSr;" parent="yer0IGdIqmeJuPcpPnfa-3" vertex="1">
          <mxGeometry x="147.5" y="320" width="120" height="90" as="geometry" />
        </mxCell>
        <mxCell id="d7LF6ZpOPFW84GlmmyYs-102" value="Modify&amp;nbsp;place" style="html=1;overflow=block;blockSpacing=1;whiteSpace=wrap;ellipse;fontSize=13.3;fontColor=#ffffff;fontStyle=2;align=center;spacing=0;verticalAlign=middle;strokeColor=#ffffff;strokeOpacity=100;fillOpacity=100;rounded=1;absoluteArcSize=1;arcSize=7.5;fillColor=#00c2a8;strokeWidth=0.8;lucidId=I1g6-z2hxhSr;" vertex="1" parent="yer0IGdIqmeJuPcpPnfa-3">
          <mxGeometry x="147.5" y="530" width="120" height="90" as="geometry" />
        </mxCell>
        <mxCell id="d7LF6ZpOPFW84GlmmyYs-104" value="View Parking" style="html=1;overflow=block;blockSpacing=1;whiteSpace=wrap;ellipse;fontSize=13.3;fontColor=#ffffff;fontStyle=2;align=center;spacing=0;verticalAlign=middle;strokeColor=#ffffff;strokeOpacity=100;fillOpacity=100;rounded=1;absoluteArcSize=1;arcSize=7.5;fillColor=#00c2a8;strokeWidth=0.8;lucidId=I1g6-z2hxhSr;" vertex="1" parent="yer0IGdIqmeJuPcpPnfa-3">
          <mxGeometry x="154.5" y="750" width="120" height="90" as="geometry" />
        </mxCell>
        <mxCell id="d7LF6ZpOPFW84GlmmyYs-105" value="Add a Parking" style="html=1;overflow=block;blockSpacing=1;whiteSpace=wrap;ellipse;fontSize=13.3;fontColor=#ffffff;fontStyle=2;align=center;spacing=0;verticalAlign=middle;strokeColor=#ffffff;strokeOpacity=100;fillOpacity=100;rounded=1;absoluteArcSize=1;arcSize=7.5;fillColor=#00c2a8;strokeWidth=0.8;lucidId=I1g6-z2hxhSr;" vertex="1" parent="yer0IGdIqmeJuPcpPnfa-3">
          <mxGeometry x="154.5" y="660" width="120" height="90" as="geometry" />
        </mxCell>
        <mxCell id="d7LF6ZpOPFW84GlmmyYs-106" value="Modify Parking" style="html=1;overflow=block;blockSpacing=1;whiteSpace=wrap;ellipse;fontSize=13.3;fontColor=#ffffff;fontStyle=2;align=center;spacing=0;verticalAlign=middle;strokeColor=#ffffff;strokeOpacity=100;fillOpacity=100;rounded=1;absoluteArcSize=1;arcSize=7.5;fillColor=#00c2a8;strokeWidth=0.8;lucidId=I1g6-z2hxhSr;" vertex="1" parent="yer0IGdIqmeJuPcpPnfa-3">
          <mxGeometry x="154.5" y="860" width="120" height="90" as="geometry" />
        </mxCell>
        <mxCell id="yer0IGdIqmeJuPcpPnfa-20" value="login" style="html=1;overflow=block;blockSpacing=1;whiteSpace=wrap;ellipse;fontSize=13.3;fontColor=#ffffff;align=center;spacing=0;verticalAlign=middle;strokeColor=#ffffff;strokeOpacity=100;fillOpacity=100;rounded=1;absoluteArcSize=1;arcSize=7.5;fillColor=#00c2a8;strokeWidth=0.8;lucidId=I1g6SlVd7WEm;" parent="yer0IGdIqmeJuPcpPnfa-3" vertex="1">
          <mxGeometry x="154.5" y="120" width="120" height="90" as="geometry" />
        </mxCell>
        <mxCell id="d7LF6ZpOPFW84GlmmyYs-113" value="Modify&amp;nbsp;Profile&amp;nbsp;" style="html=1;overflow=block;blockSpacing=1;whiteSpace=wrap;ellipse;fontSize=13.3;fontColor=#ffffff;align=center;spacing=0;verticalAlign=middle;strokeColor=#ffffff;strokeOpacity=100;fillOpacity=100;rounded=1;absoluteArcSize=1;arcSize=7.5;fillColor=#00c2a8;strokeWidth=0.8;lucidId=1yg6ph~d_LP~;" vertex="1" parent="yer0IGdIqmeJuPcpPnfa-3">
          <mxGeometry x="147.5" y="220" width="120" height="90" as="geometry" />
        </mxCell>
        <mxCell id="d7LF6ZpOPFW84GlmmyYs-114" value="" style="html=1;jettySize=18;whiteSpace=wrap;fontSize=13;strokeColor=#333333;strokeOpacity=100;strokeWidth=0.8;rounded=0;startArrow=none;endArrow=none;exitX=0.5;exitY=0.5;exitPerimeter=0;entryX=0.005;entryY=0.589;entryPerimeter=0;lucidId=G9g6W9McRclm;exitDx=0;exitDy=0;" edge="1" parent="yer0IGdIqmeJuPcpPnfa-3" source="yer0IGdIqmeJuPcpPnfa-26">
          <mxGeometry width="100" height="100" relative="1" as="geometry">
            <Array as="points" />
            <mxPoint x="-173.5" y="150" as="sourcePoint" />
            <mxPoint x="154.5" y="271" as="targetPoint" />
          </mxGeometry>
        </mxCell>
        <mxCell id="yer0IGdIqmeJuPcpPnfa-4" value="Customer" style="html=1;overflow=block;blockSpacing=1;shape=umlActor;labelPosition=center;verticalLabelPosition=bottom;verticalAlign=top;whiteSpace=nowrap;fontSize=13.3;fontColor=#333333;spacing=0;strokeColor=#333333;strokeOpacity=100;rounded=1;absoluteArcSize=1;arcSize=7.5;fillColor=#ffffff;strokeWidth=0.8;lucidId=Bqg68-uSPRnB;" parent="1" vertex="1">
          <mxGeometry x="183" y="273" width="60" height="135" as="geometry" />
        </mxCell>
        <mxCell id="yer0IGdIqmeJuPcpPnfa-5" value="Admin" style="html=1;overflow=block;blockSpacing=1;shape=umlActor;labelPosition=center;verticalLabelPosition=bottom;verticalAlign=top;whiteSpace=nowrap;fontSize=13.3;fontColor=#333333;spacing=0;strokeColor=#333333;strokeOpacity=100;rounded=1;absoluteArcSize=1;arcSize=7.5;fillColor=#ffffff;strokeWidth=0.8;lucidId=Bqg6L3N86B7u;" parent="1" vertex="1">
          <mxGeometry x="730.5" y="1250" width="60" height="135" as="geometry" />
        </mxCell>
        <mxCell id="yer0IGdIqmeJuPcpPnfa-7" value="" style="html=1;jettySize=18;whiteSpace=wrap;fontSize=13;strokeColor=#333333;strokeOpacity=100;strokeWidth=0.8;rounded=0;startArrow=none;endArrow=none;exitX=0.506;exitY=0.5;exitPerimeter=0;entryX=-0.003;entryY=0.5;entryPerimeter=0;lucidId=Bqg6mhyIei1e;" parent="1" source="yer0IGdIqmeJuPcpPnfa-4" target="yer0IGdIqmeJuPcpPnfa-6" edge="1">
          <mxGeometry width="100" height="100" relative="1" as="geometry">
            <Array as="points" />
          </mxGeometry>
        </mxCell>
        <mxCell id="yer0IGdIqmeJuPcpPnfa-9" value="" style="html=1;jettySize=18;whiteSpace=wrap;fontSize=13;strokeColor=#333333;strokeOpacity=100;strokeWidth=0.8;rounded=0;startArrow=none;endArrow=none;exitX=0.506;exitY=0.502;exitPerimeter=0;entryX=0.019;entryY=0.647;entryPerimeter=0;lucidId=FOg6-LeP_1ml;" parent="1" source="yer0IGdIqmeJuPcpPnfa-4" target="yer0IGdIqmeJuPcpPnfa-8" edge="1">
          <mxGeometry width="100" height="100" relative="1" as="geometry">
            <Array as="points" />
          </mxGeometry>
        </mxCell>
        <mxCell id="yer0IGdIqmeJuPcpPnfa-19" value="register" style="html=1;overflow=block;blockSpacing=1;whiteSpace=wrap;ellipse;fontSize=13.3;fontColor=#ffffff;fontStyle=2;align=center;spacing=0;verticalAlign=middle;strokeColor=#ffffff;strokeOpacity=100;fillOpacity=100;rounded=1;absoluteArcSize=1;arcSize=7.5;fillColor=#00c2a8;strokeWidth=0.8;lucidId=I1g6Zgy~X3of;" parent="1" vertex="1">
          <mxGeometry x="452.5" y="1268" width="120" height="90" as="geometry" />
        </mxCell>
        <mxCell id="yer0IGdIqmeJuPcpPnfa-26" value="Company" style="html=1;overflow=block;blockSpacing=1;shape=umlActor;labelPosition=center;verticalLabelPosition=bottom;verticalAlign=top;whiteSpace=nowrap;fontSize=16;fontColor=default;spacing=0;strokeColor=#333333;strokeOpacity=100;rounded=1;absoluteArcSize=1;arcSize=7.5;fillColor=#ffffff;strokeWidth=0.8;lucidId=M5g6JOFhlEeG;" parent="1" vertex="1">
          <mxGeometry x="90" y="1440" width="60" height="135" as="geometry" />
        </mxCell>
        <mxCell id="yer0IGdIqmeJuPcpPnfa-27" value="" style="html=1;jettySize=18;whiteSpace=wrap;fontSize=13;strokeColor=#333333;strokeOpacity=100;strokeWidth=0.8;rounded=0;startArrow=none;endArrow=none;exitX=0.506;exitY=0.429;exitPerimeter=0;entryX=0.017;entryY=0.641;entryPerimeter=0;lucidId=F7g6sY4Ty9f-;" parent="1" source="yer0IGdIqmeJuPcpPnfa-26" target="yer0IGdIqmeJuPcpPnfa-19" edge="1">
          <mxGeometry width="100" height="100" relative="1" as="geometry">
            <Array as="points" />
          </mxGeometry>
        </mxCell>
        <mxCell id="yer0IGdIqmeJuPcpPnfa-28" value="" style="html=1;jettySize=18;whiteSpace=wrap;fontSize=13;strokeColor=#333333;strokeOpacity=100;strokeWidth=0.8;rounded=0;startArrow=none;endArrow=none;exitX=1.003;exitY=0.513;exitPerimeter=0;entryX=0.525;entryY=0.363;entryPerimeter=0;lucidId=S7g6vy~FA92w;entryDx=0;entryDy=0;" parent="1" source="yer0IGdIqmeJuPcpPnfa-19" target="yer0IGdIqmeJuPcpPnfa-5" edge="1">
          <mxGeometry width="100" height="100" relative="1" as="geometry">
            <Array as="points" />
          </mxGeometry>
        </mxCell>
        <mxCell id="yer0IGdIqmeJuPcpPnfa-29" value="&amp;lt;&amp;lt;include&amp;gt;&amp;gt;" style="text;html=1;resizable=0;labelBackgroundColor=default;align=center;verticalAlign=middle;fontColor=#333333;fontSize=16.7;" parent="yer0IGdIqmeJuPcpPnfa-28" vertex="1">
          <mxGeometry x="-0.11222512266213935" relative="1" as="geometry">
            <mxPoint as="offset" />
          </mxGeometry>
        </mxCell>
        <mxCell id="yer0IGdIqmeJuPcpPnfa-30" value="" style="html=1;jettySize=18;whiteSpace=wrap;fontSize=13;strokeColor=#333333;strokeOpacity=100;strokeWidth=0.8;rounded=0;startArrow=none;endArrow=none;exitX=0.506;exitY=0.493;exitPerimeter=0;entryX=-0.003;entryY=0.5;entryPerimeter=0;lucidId=r9g6H5ee5nx-;" parent="1" source="yer0IGdIqmeJuPcpPnfa-26" target="yer0IGdIqmeJuPcpPnfa-20" edge="1">
          <mxGeometry width="100" height="100" relative="1" as="geometry">
            <Array as="points" />
          </mxGeometry>
        </mxCell>
        <mxCell id="yer0IGdIqmeJuPcpPnfa-31" value="" style="html=1;jettySize=18;whiteSpace=wrap;fontSize=13;strokeColor=#333333;strokeOpacity=100;strokeWidth=0.8;rounded=0;startArrow=none;endArrow=none;exitX=0.494;exitY=0.462;exitPerimeter=0;entryX=0.005;entryY=0.589;entryPerimeter=0;lucidId=G9g6W9McRclm;" parent="1" source="yer0IGdIqmeJuPcpPnfa-26" target="yer0IGdIqmeJuPcpPnfa-21" edge="1">
          <mxGeometry width="100" height="100" relative="1" as="geometry">
            <Array as="points" />
          </mxGeometry>
        </mxCell>
        <mxCell id="yer0IGdIqmeJuPcpPnfa-33" value="" style="html=1;jettySize=18;whiteSpace=wrap;fontSize=13;strokeColor=#333333;strokeOpacity=100;strokeWidth=0.8;rounded=0;startArrow=none;endArrow=none;exitX=0.506;exitY=0.502;exitPerimeter=0;entryX=0.111;entryY=0.18;entryPerimeter=0;lucidId=w-g60lsR1ei3;" parent="1" source="yer0IGdIqmeJuPcpPnfa-4" target="yer0IGdIqmeJuPcpPnfa-11" edge="1">
          <mxGeometry width="100" height="100" relative="1" as="geometry">
            <Array as="points" />
          </mxGeometry>
        </mxCell>
        <mxCell id="yer0IGdIqmeJuPcpPnfa-35" value="" style="html=1;jettySize=18;whiteSpace=wrap;fontSize=13;strokeColor=#333333;strokeOpacity=100;strokeWidth=0.8;rounded=0;startArrow=none;endArrow=none;exitX=0.494;exitY=0.455;exitPerimeter=0;entryX=0.136;entryY=0.152;entryPerimeter=0;lucidId=x-g6yjnETSpe;" parent="1" source="yer0IGdIqmeJuPcpPnfa-4" target="yer0IGdIqmeJuPcpPnfa-12" edge="1">
          <mxGeometry width="100" height="100" relative="1" as="geometry">
            <Array as="points" />
          </mxGeometry>
        </mxCell>
        <mxCell id="yer0IGdIqmeJuPcpPnfa-36" value="" style="html=1;jettySize=18;whiteSpace=wrap;fontSize=13;strokeColor=#333333;strokeOpacity=100;strokeWidth=0.8;rounded=0;startArrow=none;endArrow=none;exitX=0.506;exitY=0.486;exitPerimeter=0;entryX=0.118;entryY=0.172;entryPerimeter=0;lucidId=2-g6SpY8H9Pt;" parent="1" source="yer0IGdIqmeJuPcpPnfa-4" target="yer0IGdIqmeJuPcpPnfa-10" edge="1">
          <mxGeometry width="100" height="100" relative="1" as="geometry">
            <Array as="points" />
          </mxGeometry>
        </mxCell>
        <mxCell id="d7LF6ZpOPFW84GlmmyYs-7" value="" style="html=1;jettySize=18;whiteSpace=wrap;fontSize=13;strokeColor=#333333;strokeOpacity=100;strokeWidth=0.8;rounded=0;startArrow=none;endArrow=none;entryX=0.111;entryY=0.18;entryPerimeter=0;lucidId=w-g60lsR1ei3;exitX=0.5;exitY=0.5;exitDx=0;exitDy=0;exitPerimeter=0;" edge="1" parent="1" target="d7LF6ZpOPFW84GlmmyYs-6" source="yer0IGdIqmeJuPcpPnfa-4">
          <mxGeometry width="100" height="100" relative="1" as="geometry">
            <Array as="points" />
            <mxPoint x="200" y="340" as="sourcePoint" />
          </mxGeometry>
        </mxCell>
        <mxCell id="d7LF6ZpOPFW84GlmmyYs-9" value="" style="html=1;jettySize=18;whiteSpace=wrap;fontSize=13;strokeColor=#333333;strokeOpacity=100;strokeWidth=0.8;rounded=0;startArrow=none;endArrow=none;entryX=0.111;entryY=0.18;entryPerimeter=0;lucidId=w-g60lsR1ei3;" edge="1" parent="1" target="d7LF6ZpOPFW84GlmmyYs-8">
          <mxGeometry width="100" height="100" relative="1" as="geometry">
            <Array as="points" />
            <mxPoint x="220" y="350" as="sourcePoint" />
          </mxGeometry>
        </mxCell>
        <mxCell id="d7LF6ZpOPFW84GlmmyYs-11" value="" style="html=1;jettySize=18;whiteSpace=wrap;fontSize=13;strokeColor=#333333;strokeOpacity=100;strokeWidth=0.8;rounded=0;startArrow=none;endArrow=none;entryX=0.111;entryY=0.18;entryPerimeter=0;lucidId=w-g60lsR1ei3;" edge="1" parent="1" target="d7LF6ZpOPFW84GlmmyYs-10" source="yer0IGdIqmeJuPcpPnfa-4">
          <mxGeometry width="100" height="100" relative="1" as="geometry">
            <Array as="points" />
            <mxPoint x="213" y="781" as="sourcePoint" />
          </mxGeometry>
        </mxCell>
        <mxCell id="d7LF6ZpOPFW84GlmmyYs-17" value="" style="html=1;jettySize=18;whiteSpace=wrap;fontSize=13;strokeColor=#333333;strokeOpacity=100;strokeWidth=0.8;rounded=0;startArrow=none;endArrow=none;exitX=0.5;exitY=0.5;exitPerimeter=0;entryX=0.136;entryY=0.152;entryPerimeter=0;lucidId=x-g6yjnETSpe;exitDx=0;exitDy=0;" edge="1" parent="1" target="d7LF6ZpOPFW84GlmmyYs-16" source="yer0IGdIqmeJuPcpPnfa-4">
          <mxGeometry width="100" height="100" relative="1" as="geometry">
            <Array as="points" />
            <mxPoint x="213" y="414" as="sourcePoint" />
          </mxGeometry>
        </mxCell>
        <mxCell id="d7LF6ZpOPFW84GlmmyYs-100" value="" style="html=1;jettySize=18;whiteSpace=wrap;fontSize=13;strokeColor=#333333;strokeOpacity=100;strokeWidth=0.8;rounded=0;startArrow=none;endArrow=none;exitX=0.523;exitY=0.624;exitPerimeter=0;entryX=0.005;entryY=0.589;entryPerimeter=0;lucidId=G9g6W9McRclm;exitDx=0;exitDy=0;" edge="1" parent="1" target="d7LF6ZpOPFW84GlmmyYs-97" source="yer0IGdIqmeJuPcpPnfa-26">
          <mxGeometry width="100" height="100" relative="1" as="geometry">
            <Array as="points" />
            <mxPoint x="149" y="1784" as="sourcePoint" />
          </mxGeometry>
        </mxCell>
        <mxCell id="d7LF6ZpOPFW84GlmmyYs-103" value="" style="html=1;jettySize=18;whiteSpace=wrap;fontSize=13;strokeColor=#333333;strokeOpacity=100;strokeWidth=0.8;rounded=0;startArrow=none;endArrow=none;exitX=0.457;exitY=0.568;exitPerimeter=0;entryX=0.005;entryY=0.589;entryPerimeter=0;lucidId=G9g6W9McRclm;exitDx=0;exitDy=0;" edge="1" parent="1" target="d7LF6ZpOPFW84GlmmyYs-102" source="yer0IGdIqmeJuPcpPnfa-26">
          <mxGeometry width="100" height="100" relative="1" as="geometry">
            <Array as="points" />
            <mxPoint x="110" y="1879" as="sourcePoint" />
          </mxGeometry>
        </mxCell>
        <mxCell id="d7LF6ZpOPFW84GlmmyYs-107" value="" style="html=1;jettySize=18;whiteSpace=wrap;fontSize=13;strokeColor=#333333;strokeOpacity=100;strokeWidth=0.8;rounded=0;startArrow=none;endArrow=none;exitX=0.5;exitY=0.5;exitPerimeter=0;entryX=0.005;entryY=0.589;entryPerimeter=0;lucidId=G9g6W9McRclm;exitDx=0;exitDy=0;" edge="1" parent="1" target="d7LF6ZpOPFW84GlmmyYs-105" source="yer0IGdIqmeJuPcpPnfa-26">
          <mxGeometry width="100" height="100" relative="1" as="geometry">
            <Array as="points" />
            <mxPoint x="120" y="1947.5" as="sourcePoint" />
          </mxGeometry>
        </mxCell>
        <mxCell id="d7LF6ZpOPFW84GlmmyYs-108" value="" style="html=1;jettySize=18;whiteSpace=wrap;fontSize=13;strokeColor=#333333;strokeOpacity=100;strokeWidth=0.8;rounded=0;startArrow=none;endArrow=none;exitX=0.5;exitY=0.5;exitPerimeter=0;entryX=0.005;entryY=0.589;entryPerimeter=0;lucidId=G9g6W9McRclm;exitDx=0;exitDy=0;" edge="1" parent="1" target="d7LF6ZpOPFW84GlmmyYs-104" source="yer0IGdIqmeJuPcpPnfa-26">
          <mxGeometry width="100" height="100" relative="1" as="geometry">
            <Array as="points" />
            <mxPoint x="118.55999999999995" y="1960.73" as="sourcePoint" />
          </mxGeometry>
        </mxCell>
        <mxCell id="d7LF6ZpOPFW84GlmmyYs-109" value="" style="html=1;jettySize=18;whiteSpace=wrap;fontSize=13;strokeColor=#333333;strokeOpacity=100;strokeWidth=0.8;rounded=0;startArrow=none;endArrow=none;entryX=0.005;entryY=0.589;entryPerimeter=0;lucidId=G9g6W9McRclm;exitX=0.779;exitY=0.889;exitDx=0;exitDy=0;exitPerimeter=0;" edge="1" parent="1" target="d7LF6ZpOPFW84GlmmyYs-106" source="yer0IGdIqmeJuPcpPnfa-26">
          <mxGeometry width="100" height="100" relative="1" as="geometry">
            <Array as="points" />
            <mxPoint x="120" y="1960" as="sourcePoint" />
          </mxGeometry>
        </mxCell>
      </root>
    </mxGraphModel>
  </diagram>
</mxfile>
